<svg viewBox="0 0 320 180" xmlns="http://www.w3.org/2000/svg">
  <defs>
    <linearGradient id="bgGrad" x1="0%" y1="0%" x2="0%" y2="100%">
      <stop offset="0%" style="stop-color:#faf8f5" />
      <stop offset="100%" style="stop-color:#f5f3f0" />
    </linearGradient>
  </defs>

  <!-- Background -->
  <rect width="320" height="180" fill="url(#bgGrad)" />

  <!-- Grid lines -->
  <g stroke="#e8e6e1" stroke-width="1">
    <line x1="50" y1="20" x2="50" y2="150" />
    <line x1="50" y1="150" x2="300" y2="150" />
    <line x1="50" y1="129.7" x2="300" y2="129.7" stroke-dasharray="4,4" />
    <line x1="50" y1="109.4" x2="300" y2="109.4" stroke-dasharray="4,4" />
    <line x1="50" y1="89.1" x2="300" y2="89.1" stroke-dasharray="4,4" />
    <line x1="50" y1="68.8" x2="300" y2="68.8" stroke-dasharray="4,4" />
    <line x1="50" y1="48.4" x2="300" y2="48.4" stroke-dasharray="4,4" />
    <line x1="88.5" y1="20" x2="88.5" y2="150" stroke-dasharray="4,4" />
    <line x1="126.9" y1="20" x2="126.9" y2="150" stroke-dasharray="4,4" />
    <line x1="165.4" y1="20" x2="165.4" y2="150" stroke-dasharray="4,4" />
    <line x1="203.8" y1="20" x2="203.8" y2="150" stroke-dasharray="4,4" />
    <line x1="242.3" y1="20" x2="242.3" y2="150" stroke-dasharray="4,4" />
    <line x1="280.8" y1="20" x2="280.8" y2="150" stroke-dasharray="4,4" />
  </g>

  <!-- Axis labels -->
  <text x="160.0" y="175" text-anchor="middle" fill="#8a8a9a" font-family="DM Sans, sans-serif" font-size="9">VRE Penetration (%)</text>
  <text x="12" y="90.0" text-anchor="middle" fill="#8a8a9a" font-family="DM Sans, sans-serif" font-size="9" transform="rotate(-90 12 90.0)">SAIDI (min)</text>

  <!-- Trend line -->
  <line x1="50.0" y1="106.1" x2="300.0" y2="131.2" stroke="#1a1a2e" stroke-width="2" opacity="0.7" />

  <!-- Data points -->
  <g>
    <circle cx="58.6" cy="64.9" r="3" fill="#2a9d8f" opacity="0.7" />
    <circle cx="50.0" cy="88.8" r="3" fill="#2a9d8f" opacity="0.7" />
    <circle cx="50.0" cy="58.7" r="3" fill="#2a9d8f" opacity="0.7" />
    <circle cx="58.7" cy="106.9" r="3" fill="#2a9d8f" opacity="0.7" />
    <circle cx="82.0" cy="103.0" r="3" fill="#2a9d8f" opacity="0.7" />
    <circle cx="104.2" cy="129.2" r="3" fill="#2a9d8f" opacity="0.7" />
    <circle cx="50.0" cy="142.2" r="3" fill="#2a9d8f" opacity="0.7" />
    <circle cx="50.0" cy="148.6" r="3" fill="#2a9d8f" opacity="0.7" />
    <circle cx="52.4" cy="131.4" r="3" fill="#2a9d8f" opacity="0.7" />
    <circle cx="50.3" cy="94.9" r="3" fill="#2a9d8f" opacity="0.7" />
    <circle cx="50.0" cy="83.6" r="3" fill="#2a9d8f" opacity="0.7" />
    <circle cx="69.6" cy="92.4" r="3" fill="#2a9d8f" opacity="0.7" />
    <circle cx="155.7" cy="128.6" r="3" fill="#2a9d8f" opacity="0.7" />
    <circle cx="112.3" cy="134.2" r="3" fill="#2a9d8f" opacity="0.7" />
    <circle cx="68.3" cy="120.1" r="3" fill="#2a9d8f" opacity="0.7" />
    <circle cx="62.2" cy="128.3" r="3" fill="#2a9d8f" opacity="0.7" />
    <circle cx="124.8" cy="109.7" r="3" fill="#2a9d8f" opacity="0.7" />
    <circle cx="50.0" cy="99.8" r="3" fill="#2a9d8f" opacity="0.7" />
    <circle cx="50.0" cy="67.5" r="3" fill="#2a9d8f" opacity="0.7" />
    <circle cx="53.7" cy="134.8" r="3" fill="#2a9d8f" opacity="0.7" />
    <circle cx="54.1" cy="126.2" r="3" fill="#2a9d8f" opacity="0.7" />
    <circle cx="78.7" cy="61.1" r="3" fill="#2a9d8f" opacity="0.7" />
    <circle cx="60.2" cy="101.5" r="3" fill="#2a9d8f" opacity="0.7" />
    <circle cx="112.0" cy="138.2" r="3" fill="#2a9d8f" opacity="0.7" />
    <circle cx="54.9" cy="109.3" r="3" fill="#2a9d8f" opacity="0.7" />
    <circle cx="50.0" cy="79.5" r="3" fill="#2a9d8f" opacity="0.7" />
    <circle cx="74.4" cy="130.1" r="3" fill="#2a9d8f" opacity="0.7" />
    <circle cx="51.0" cy="91.3" r="3" fill="#2a9d8f" opacity="0.7" />
    <circle cx="110.6" cy="142.8" r="3" fill="#2a9d8f" opacity="0.7" />
    <circle cx="68.7" cy="138.8" r="3" fill="#2a9d8f" opacity="0.7" />
    <circle cx="57.6" cy="120.0" r="3" fill="#2a9d8f" opacity="0.7" />
    <circle cx="52.7" cy="138.6" r="3" fill="#2a9d8f" opacity="0.7" />
    <circle cx="77.7" cy="110.3" r="3" fill="#2a9d8f" opacity="0.7" />
    <circle cx="60.5" cy="121.2" r="3" fill="#2a9d8f" opacity="0.7" />
    <circle cx="60.2" cy="130.8" r="3" fill="#2a9d8f" opacity="0.7" />
    <circle cx="53.3" cy="120.3" r="3" fill="#2a9d8f" opacity="0.7" />
    <circle cx="108.3" cy="102.1" r="3" fill="#2a9d8f" opacity="0.7" />
    <circle cx="98.0" cy="112.6" r="3" fill="#2a9d8f" opacity="0.7" />
    <circle cx="55.8" cy="121.1" r="3" fill="#2a9d8f" opacity="0.7" />
    <circle cx="50.3" cy="134.3" r="3" fill="#2a9d8f" opacity="0.7" />
    <circle cx="50.0" cy="103.9" r="3" fill="#2a9d8f" opacity="0.7" />
    <circle cx="152.3" cy="136.7" r="3" fill="#2a9d8f" opacity="0.7" />
    <circle cx="50.3" cy="102.5" r="3" fill="#2a9d8f" opacity="0.7" />
    <circle cx="82.0" cy="103.6" r="3" fill="#2a9d8f" opacity="0.7" />
    <circle cx="54.9" cy="128.7" r="3" fill="#2a9d8f" opacity="0.7" />
    <circle cx="50.0" cy="121.4" r="3" fill="#2a9d8f" opacity="0.7" />
    <circle cx="64.2" cy="105.8" r="3" fill="#2a9d8f" opacity="0.7" />
    <circle cx="73.6" cy="122.9" r="3" fill="#2a9d8f" opacity="0.7" />
    <circle cx="59.1" cy="124.0" r="3" fill="#2a9d8f" opacity="0.7" />
    <circle cx="57.0" cy="100.2" r="3" fill="#2a9d8f" opacity="0.7" />
    <circle cx="82.5" cy="129.0" r="3" fill="#2a9d8f" opacity="0.7" />
    <circle cx="59.7" cy="64.2" r="3" fill="#e76f51" opacity="0.7" />
    <circle cx="50.0" cy="86.6" r="3" fill="#e76f51" opacity="0.7" />
    <circle cx="50.0" cy="74.6" r="3" fill="#e76f51" opacity="0.7" />
    <circle cx="62.4" cy="120.9" r="3" fill="#e76f51" opacity="0.7" />
    <circle cx="94.3" cy="89.5" r="3" fill="#e76f51" opacity="0.7" />
    <circle cx="104.4" cy="123.5" r="3" fill="#e76f51" opacity="0.7" />
    <circle cx="50.1" cy="129.4" r="3" fill="#e76f51" opacity="0.7" />
    <circle cx="50.0" cy="139.2" r="3" fill="#e76f51" opacity="0.7" />
    <circle cx="52.7" cy="136.3" r="3" fill="#e76f51" opacity="0.7" />
    <circle cx="50.4" cy="80.8" r="3" fill="#e76f51" opacity="0.7" />
    <circle cx="50.3" cy="84.1" r="3" fill="#e76f51" opacity="0.7" />
    <circle cx="73.3" cy="92.3" r="3" fill="#e76f51" opacity="0.7" />
    <circle cx="160.3" cy="136.1" r="3" fill="#e76f51" opacity="0.7" />
    <circle cx="121.1" cy="139.1" r="3" fill="#e76f51" opacity="0.7" />
    <circle cx="69.3" cy="135.7" r="3" fill="#e76f51" opacity="0.7" />
    <circle cx="62.0" cy="111.9" r="3" fill="#e76f51" opacity="0.7" />
    <circle cx="133.9" cy="107.5" r="3" fill="#e76f51" opacity="0.7" />
    <circle cx="50.0" cy="111.7" r="3" fill="#e76f51" opacity="0.7" />
    <circle cx="50.0" cy="79.9" r="3" fill="#e76f51" opacity="0.7" />
    <circle cx="56.6" cy="140.3" r="3" fill="#e76f51" opacity="0.7" />
    <circle cx="54.3" cy="131.7" r="3" fill="#e76f51" opacity="0.7" />
    <circle cx="81.8" cy="62.5" r="3" fill="#e76f51" opacity="0.7" />
    <circle cx="63.9" cy="94.7" r="3" fill="#e76f51" opacity="0.7" />
    <circle cx="115.4" cy="130.7" r="3" fill="#e76f51" opacity="0.7" />
    <circle cx="55.0" cy="100.2" r="3" fill="#e76f51" opacity="0.7" />
    <circle cx="50.0" cy="74.2" r="3" fill="#e76f51" opacity="0.7" />
    <circle cx="75.1" cy="128.5" r="3" fill="#e76f51" opacity="0.7" />
    <circle cx="52.2" cy="107.5" r="3" fill="#e76f51" opacity="0.7" />
    <circle cx="115.4" cy="142.7" r="3" fill="#e76f51" opacity="0.7" />
    <circle cx="76.7" cy="140.5" r="3" fill="#e76f51" opacity="0.7" />
    <circle cx="58.1" cy="118.1" r="3" fill="#e76f51" opacity="0.7" />
    <circle cx="53.0" cy="139.6" r="3" fill="#e76f51" opacity="0.7" />
    <circle cx="83.2" cy="125.1" r="3" fill="#e76f51" opacity="0.7" />
    <circle cx="64.0" cy="126.6" r="3" fill="#e76f51" opacity="0.7" />
    <circle cx="61.3" cy="125.7" r="3" fill="#e76f51" opacity="0.7" />
    <circle cx="53.5" cy="106.2" r="3" fill="#e76f51" opacity="0.7" />
    <circle cx="115.4" cy="93.2" r="3" fill="#e76f51" opacity="0.7" />
    <circle cx="98.5" cy="113.4" r="3" fill="#e76f51" opacity="0.7" />
    <circle cx="56.3" cy="131.1" r="3" fill="#e76f51" opacity="0.7" />
    <circle cx="51.2" cy="140.0" r="3" fill="#e76f51" opacity="0.7" />
    <circle cx="50.0" cy="89.4" r="3" fill="#e76f51" opacity="0.7" />
    <circle cx="131.7" cy="130.7" r="3" fill="#e76f51" opacity="0.7" />
    <circle cx="50.4" cy="106.6" r="3" fill="#e76f51" opacity="0.7" />
    <circle cx="85.4" cy="90.0" r="3" fill="#e76f51" opacity="0.7" />
    <circle cx="55.8" cy="139.6" r="3" fill="#e76f51" opacity="0.7" />
    <circle cx="50.0" cy="117.7" r="3" fill="#e76f51" opacity="0.7" />
    <circle cx="68.3" cy="94.8" r="3" fill="#e76f51" opacity="0.7" />
    <circle cx="74.0" cy="128.4" r="3" fill="#e76f51" opacity="0.7" />
    <circle cx="60.2" cy="123.5" r="3" fill="#e76f51" opacity="0.7" />
    <circle cx="56.9" cy="82.8" r="3" fill="#e76f51" opacity="0.7" />
    <circle cx="84.1" cy="128.6" r="3" fill="#e76f51" opacity="0.7" />
    <circle cx="59.8" cy="56.8" r="3" fill="#e9c46a" opacity="0.7" />
    <circle cx="50.0" cy="91.9" r="3" fill="#e9c46a" opacity="0.7" />
    <circle cx="50.0" cy="81.1" r="3" fill="#e9c46a" opacity="0.7" />
    <circle cx="63.3" cy="114.0" r="3" fill="#e9c46a" opacity="0.7" />
    <circle cx="102.9" cy="100.6" r="3" fill="#e9c46a" opacity="0.7" />
    <circle cx="106.7" cy="114.4" r="3" fill="#e9c46a" opacity="0.7" />
    <circle cx="50.2" cy="134.1" r="3" fill="#e9c46a" opacity="0.7" />
    <circle cx="50.0" cy="146.6" r="3" fill="#e9c46a" opacity="0.7" />
    <circle cx="52.7" cy="138.1" r="3" fill="#e9c46a" opacity="0.7" />
    <circle cx="50.3" cy="67.4" r="3" fill="#e9c46a" opacity="0.7" />
    <circle cx="50.4" cy="90.2" r="3" fill="#e9c46a" opacity="0.7" />
    <circle cx="75.3" cy="111.9" r="3" fill="#e9c46a" opacity="0.7" />
    <circle cx="171.3" cy="131.4" r="3" fill="#e9c46a" opacity="0.7" />
    <circle cx="105.7" cy="130.9" r="3" fill="#e9c46a" opacity="0.7" />
    <circle cx="71.4" cy="132.9" r="3" fill="#e9c46a" opacity="0.7" />
    <circle cx="67.3" cy="127.7" r="3" fill="#e9c46a" opacity="0.7" />
    <circle cx="142.9" cy="121.0" r="3" fill="#e9c46a" opacity="0.7" />
    <circle cx="50.0" cy="88.3" r="3" fill="#e9c46a" opacity="0.7" />
    <circle cx="50.0" cy="55.8" r="3" fill="#e9c46a" opacity="0.7" />
    <circle cx="58.0" cy="140.8" r="3" fill="#e9c46a" opacity="0.7" />
    <circle cx="55.8" cy="130.5" r="3" fill="#e9c46a" opacity="0.7" />
    <circle cx="92.5" cy="75.0" r="3" fill="#e9c46a" opacity="0.7" />
    <circle cx="66.3" cy="99.7" r="3" fill="#e9c46a" opacity="0.7" />
    <circle cx="116.0" cy="128.2" r="3" fill="#e9c46a" opacity="0.7" />
    <circle cx="54.8" cy="121.3" r="3" fill="#e9c46a" opacity="0.7" />
    <circle cx="50.0" cy="68.1" r="3" fill="#e9c46a" opacity="0.7" />
    <circle cx="75.8" cy="118.3" r="3" fill="#e9c46a" opacity="0.7" />
    <circle cx="54.1" cy="95.0" r="3" fill="#e9c46a" opacity="0.7" />
    <circle cx="117.3" cy="134.8" r="3" fill="#e9c46a" opacity="0.7" />
    <circle cx="80.7" cy="140.9" r="3" fill="#e9c46a" opacity="0.7" />
    <circle cx="58.2" cy="102.2" r="3" fill="#e9c46a" opacity="0.7" />
    <circle cx="53.3" cy="134.8" r="3" fill="#e9c46a" opacity="0.7" />
    <circle cx="81.8" cy="112.3" r="3" fill="#e9c46a" opacity="0.7" />
    <circle cx="69.4" cy="127.5" r="3" fill="#e9c46a" opacity="0.7" />
    <circle cx="61.3" cy="129.2" r="3" fill="#e9c46a" opacity="0.7" />
    <circle cx="54.0" cy="111.5" r="3" fill="#e9c46a" opacity="0.7" />
    <circle cx="120.9" cy="103.0" r="3" fill="#e9c46a" opacity="0.7" />
    <circle cx="94.2" cy="127.1" r="3" fill="#e9c46a" opacity="0.7" />
    <circle cx="56.1" cy="127.3" r="3" fill="#e9c46a" opacity="0.7" />
    <circle cx="51.3" cy="136.0" r="3" fill="#e9c46a" opacity="0.7" />
    <circle cx="50.0" cy="91.4" r="3" fill="#e9c46a" opacity="0.7" />
    <circle cx="149.7" cy="137.0" r="3" fill="#e9c46a" opacity="0.7" />
    <circle cx="50.6" cy="94.1" r="3" fill="#e9c46a" opacity="0.7" />
    <circle cx="88.7" cy="101.5" r="3" fill="#e9c46a" opacity="0.7" />
    <circle cx="56.0" cy="141.9" r="3" fill="#e9c46a" opacity="0.7" />
    <circle cx="50.0" cy="105.5" r="3" fill="#e9c46a" opacity="0.7" />
    <circle cx="122.5" cy="87.2" r="3" fill="#e9c46a" opacity="0.7" />
    <circle cx="74.9" cy="128.2" r="3" fill="#e9c46a" opacity="0.7" />
    <circle cx="59.2" cy="124.5" r="3" fill="#e9c46a" opacity="0.7" />
    <circle cx="57.3" cy="98.4" r="3" fill="#e9c46a" opacity="0.7" />
    <circle cx="79.5" cy="130.1" r="3" fill="#e9c46a" opacity="0.7" />
    <circle cx="60.3" cy="36.7" r="3" fill="#264653" opacity="0.7" />
    <circle cx="50.1" cy="96.8" r="3" fill="#264653" opacity="0.7" />
    <circle cx="50.2" cy="80.7" r="3" fill="#264653" opacity="0.7" />
    <circle cx="65.2" cy="101.0" r="3" fill="#264653" opacity="0.7" />
    <circle cx="113.1" cy="90.6" r="3" fill="#264653" opacity="0.7" />
    <circle cx="120.4" cy="124.3" r="3" fill="#264653" opacity="0.7" />
    <circle cx="50.4" cy="139.4" r="3" fill="#264653" opacity="0.7" />
    <circle cx="50.0" cy="147.1" r="3" fill="#264653" opacity="0.7" />
    <circle cx="52.5" cy="127.0" r="3" fill="#264653" opacity="0.7" />
    <circle cx="50.3" cy="71.8" r="3" fill="#264653" opacity="0.7" />
    <circle cx="52.5" cy="105.8" r="3" fill="#264653" opacity="0.7" />
    <circle cx="78.1" cy="103.4" r="3" fill="#264653" opacity="0.7" />
    <circle cx="191.9" cy="126.8" r="3" fill="#264653" opacity="0.7" />
    <circle cx="114.0" cy="125.7" r="3" fill="#264653" opacity="0.7" />
    <circle cx="72.0" cy="121.1" r="3" fill="#264653" opacity="0.7" />
    <circle cx="69.4" cy="112.6" r="3" fill="#264653" opacity="0.7" />
    <circle cx="164.0" cy="120.8" r="3" fill="#264653" opacity="0.7" />
    <circle cx="50.0" cy="99.8" r="3" fill="#264653" opacity="0.7" />
    <circle cx="50.0" cy="45.7" r="3" fill="#264653" opacity="0.7" />
    <circle cx="59.9" cy="130.1" r="3" fill="#264653" opacity="0.7" />
    <circle cx="57.6" cy="133.2" r="3" fill="#264653" opacity="0.7" />
    <circle cx="105.7" cy="89.8" r="3" fill="#264653" opacity="0.7" />
    <circle cx="66.2" cy="86.2" r="3" fill="#264653" opacity="0.7" />
    <circle cx="114.3" cy="122.8" r="3" fill="#264653" opacity="0.7" />
    <circle cx="55.7" cy="99.3" r="3" fill="#264653" opacity="0.7" />
    <circle cx="50.0" cy="39.3" r="3" fill="#264653" opacity="0.7" />
    <circle cx="79.6" cy="118.4" r="3" fill="#264653" opacity="0.7" />
    <circle cx="60.1" cy="97.6" r="3" fill="#264653" opacity="0.7" />
    <circle cx="133.0" cy="135.4" r="3" fill="#264653" opacity="0.7" />
    <circle cx="90.0" cy="140.1" r="3" fill="#264653" opacity="0.7" />
    <circle cx="58.6" cy="108.1" r="3" fill="#264653" opacity="0.7" />
    <circle cx="54.2" cy="134.2" r="3" fill="#264653" opacity="0.7" />
    <circle cx="100.9" cy="123.6" r="3" fill="#264653" opacity="0.7" />
    <circle cx="83.5" cy="118.2" r="3" fill="#264653" opacity="0.7" />
    <circle cx="61.7" cy="138.4" r="3" fill="#264653" opacity="0.7" />
    <circle cx="54.2" cy="117.6" r="3" fill="#264653" opacity="0.7" />
    <circle cx="148.2" cy="85.4" r="3" fill="#264653" opacity="0.7" />
    <circle cx="96.0" cy="122.4" r="3" fill="#264653" opacity="0.7" />
    <circle cx="56.3" cy="118.4" r="3" fill="#264653" opacity="0.7" />
    <circle cx="52.4" cy="140.9" r="3" fill="#264653" opacity="0.7" />
    <circle cx="50.0" cy="97.6" r="3" fill="#264653" opacity="0.7" />
    <circle cx="174.0" cy="141.5" r="3" fill="#264653" opacity="0.7" />
    <circle cx="50.6" cy="90.7" r="3" fill="#264653" opacity="0.7" />
    <circle cx="99.3" cy="87.1" r="3" fill="#264653" opacity="0.7" />
    <circle cx="68.9" cy="137.3" r="3" fill="#264653" opacity="0.7" />
    <circle cx="50.1" cy="112.3" r="3" fill="#264653" opacity="0.7" />
    <circle cx="120.5" cy="106.6" r="3" fill="#264653" opacity="0.7" />
    <circle cx="77.1" cy="123.8" r="3" fill="#264653" opacity="0.7" />
    <circle cx="59.0" cy="130.9" r="3" fill="#264653" opacity="0.7" />
    <circle cx="57.3" cy="84.8" r="3" fill="#264653" opacity="0.7" />
    <circle cx="86.2" cy="130.3" r="3" fill="#264653" opacity="0.7" />
    <circle cx="58.4" cy="34.3" r="3" fill="#a7c4a0" opacity="0.7" />
    <circle cx="50.5" cy="85.6" r="3" fill="#a7c4a0" opacity="0.7" />
    <circle cx="50.2" cy="81.9" r="3" fill="#a7c4a0" opacity="0.7" />
    <circle cx="70.0" cy="105.8" r="3" fill="#a7c4a0" opacity="0.7" />
    <circle cx="119.3" cy="105.3" r="3" fill="#a7c4a0" opacity="0.7" />
    <circle cx="123.3" cy="115.3" r="3" fill="#a7c4a0" opacity="0.7" />
    <circle cx="50.6" cy="135.3" r="3" fill="#a7c4a0" opacity="0.7" />
    <circle cx="50.0" cy="147.2" r="3" fill="#a7c4a0" opacity="0.7" />
    <circle cx="52.8" cy="136.8" r="3" fill="#a7c4a0" opacity="0.7" />
    <circle cx="51.4" cy="82.0" r="3" fill="#a7c4a0" opacity="0.7" />
    <circle cx="56.0" cy="84.8" r="3" fill="#a7c4a0" opacity="0.7" />
    <circle cx="77.7" cy="90.6" r="3" fill="#a7c4a0" opacity="0.7" />
    <circle cx="192.0" cy="135.9" r="3" fill="#a7c4a0" opacity="0.7" />
    <circle cx="116.4" cy="136.4" r="3" fill="#a7c4a0" opacity="0.7" />
    <circle cx="75.8" cy="131.8" r="3" fill="#a7c4a0" opacity="0.7" />
    <circle cx="70.9" cy="117.7" r="3" fill="#a7c4a0" opacity="0.7" />
    <circle cx="190.5" cy="115.0" r="3" fill="#a7c4a0" opacity="0.7" />
    <circle cx="50.1" cy="93.1" r="3" fill="#a7c4a0" opacity="0.7" />
    <circle cx="50.0" cy="53.4" r="3" fill="#a7c4a0" opacity="0.7" />
    <circle cx="62.2" cy="131.6" r="3" fill="#a7c4a0" opacity="0.7" />
    <circle cx="59.3" cy="126.6" r="3" fill="#a7c4a0" opacity="0.7" />
    <circle cx="129.8" cy="54.0" r="3" fill="#a7c4a0" opacity="0.7" />
    <circle cx="68.0" cy="77.1" r="3" fill="#a7c4a0" opacity="0.7" />
    <circle cx="126.8" cy="130.5" r="3" fill="#a7c4a0" opacity="0.7" />
    <circle cx="59.5" cy="103.6" r="3" fill="#a7c4a0" opacity="0.7" />
    <circle cx="50.5" cy="69.1" r="3" fill="#a7c4a0" opacity="0.7" />
    <circle cx="79.5" cy="123.8" r="3" fill="#a7c4a0" opacity="0.7" />
    <circle cx="66.7" cy="100.4" r="3" fill="#a7c4a0" opacity="0.7" />
    <circle cx="155.3" cy="139.2" r="3" fill="#a7c4a0" opacity="0.7" />
    <circle cx="105.4" cy="140.2" r="3" fill="#a7c4a0" opacity="0.7" />
    <circle cx="59.1" cy="109.0" r="3" fill="#a7c4a0" opacity="0.7" />
    <circle cx="54.8" cy="136.2" r="3" fill="#a7c4a0" opacity="0.7" />
    <circle cx="116.3" cy="113.7" r="3" fill="#a7c4a0" opacity="0.7" />
    <circle cx="95.4" cy="126.4" r="3" fill="#a7c4a0" opacity="0.7" />
    <circle cx="63.0" cy="131.6" r="3" fill="#a7c4a0" opacity="0.7" />
    <circle cx="55.5" cy="112.1" r="3" fill="#a7c4a0" opacity="0.7" />
    <circle cx="173.3" cy="78.4" r="3" fill="#a7c4a0" opacity="0.7" />
    <circle cx="89.4" cy="120.5" r="3" fill="#a7c4a0" opacity="0.7" />
    <circle cx="56.6" cy="124.9" r="3" fill="#a7c4a0" opacity="0.7" />
    <circle cx="58.2" cy="133.6" r="3" fill="#a7c4a0" opacity="0.7" />
    <circle cx="50.3" cy="96.4" r="3" fill="#a7c4a0" opacity="0.7" />
    <circle cx="154.1" cy="135.5" r="3" fill="#a7c4a0" opacity="0.7" />
    <circle cx="50.7" cy="109.6" r="3" fill="#a7c4a0" opacity="0.7" />
    <circle cx="108.8" cy="99.8" r="3" fill="#a7c4a0" opacity="0.7" />
    <circle cx="81.5" cy="136.5" r="3" fill="#a7c4a0" opacity="0.7" />
    <circle cx="51.3" cy="110.8" r="3" fill="#a7c4a0" opacity="0.7" />
    <circle cx="122.6" cy="93.0" r="3" fill="#a7c4a0" opacity="0.7" />
    <circle cx="73.0" cy="123.9" r="3" fill="#a7c4a0" opacity="0.7" />
    <circle cx="59.8" cy="137.7" r="3" fill="#a7c4a0" opacity="0.7" />
    <circle cx="58.8" cy="85.6" r="3" fill="#a7c4a0" opacity="0.7" />
    <circle cx="85.5" cy="139.4" r="3" fill="#a7c4a0" opacity="0.7" />
    <circle cx="59.5" cy="35.7" r="3" fill="#f4a261" opacity="0.7" />
    <circle cx="51.0" cy="98.4" r="3" fill="#f4a261" opacity="0.7" />
    <circle cx="51.2" cy="78.8" r="3" fill="#f4a261" opacity="0.7" />
    <circle cx="69.5" cy="103.2" r="3" fill="#f4a261" opacity="0.7" />
    <circle cx="130.7" cy="111.2" r="3" fill="#f4a261" opacity="0.7" />
    <circle cx="125.0" cy="111.8" r="3" fill="#f4a261" opacity="0.7" />
    <circle cx="51.2" cy="131.6" r="3" fill="#f4a261" opacity="0.7" />
    <circle cx="50.0" cy="139.7" r="3" fill="#f4a261" opacity="0.7" />
    <circle cx="53.4" cy="129.4" r="3" fill="#f4a261" opacity="0.7" />
    <circle cx="53.8" cy="64.8" r="3" fill="#f4a261" opacity="0.7" />
    <circle cx="55.9" cy="104.7" r="3" fill="#f4a261" opacity="0.7" />
    <circle cx="80.9" cy="108.1" r="3" fill="#f4a261" opacity="0.7" />
    <circle cx="179.5" cy="127.9" r="3" fill="#f4a261" opacity="0.7" />
    <circle cx="118.0" cy="128.6" r="3" fill="#f4a261" opacity="0.7" />
    <circle cx="74.5" cy="122.0" r="3" fill="#f4a261" opacity="0.7" />
    <circle cx="69.4" cy="124.5" r="3" fill="#f4a261" opacity="0.7" />
    <circle cx="190.7" cy="106.2" r="3" fill="#f4a261" opacity="0.7" />
    <circle cx="50.2" cy="108.6" r="3" fill="#f4a261" opacity="0.7" />
    <circle cx="50.0" cy="65.1" r="3" fill="#f4a261" opacity="0.7" />
    <circle cx="67.0" cy="133.1" r="3" fill="#f4a261" opacity="0.7" />
    <circle cx="58.5" cy="126.2" r="3" fill="#f4a261" opacity="0.7" />
    <circle cx="131.7" cy="50.1" r="3" fill="#f4a261" opacity="0.7" />
    <circle cx="68.5" cy="102.0" r="3" fill="#f4a261" opacity="0.7" />
    <circle cx="123.5" cy="124.0" r="3" fill="#f4a261" opacity="0.7" />
    <circle cx="63.2" cy="102.5" r="3" fill="#f4a261" opacity="0.7" />
    <circle cx="52.0" cy="73.8" r="3" fill="#f4a261" opacity="0.7" />
    <circle cx="79.8" cy="126.9" r="3" fill="#f4a261" opacity="0.7" />
    <circle cx="69.1" cy="103.9" r="3" fill="#f4a261" opacity="0.7" />
    <circle cx="146.9" cy="137.3" r="3" fill="#f4a261" opacity="0.7" />
    <circle cx="108.0" cy="133.7" r="3" fill="#f4a261" opacity="0.7" />
    <circle cx="59.2" cy="119.0" r="3" fill="#f4a261" opacity="0.7" />
    <circle cx="55.2" cy="129.6" r="3" fill="#f4a261" opacity="0.7" />
    <circle cx="137.6" cy="113.1" r="3" fill="#f4a261" opacity="0.7" />
    <circle cx="98.8" cy="114.7" r="3" fill="#f4a261" opacity="0.7" />
    <circle cx="62.5" cy="125.9" r="3" fill="#f4a261" opacity="0.7" />
    <circle cx="55.7" cy="114.9" r="3" fill="#f4a261" opacity="0.7" />
    <circle cx="172.2" cy="96.6" r="3" fill="#f4a261" opacity="0.7" />
    <circle cx="98.1" cy="110.5" r="3" fill="#f4a261" opacity="0.7" />
    <circle cx="56.5" cy="114.1" r="3" fill="#f4a261" opacity="0.7" />
    <circle cx="58.6" cy="138.3" r="3" fill="#f4a261" opacity="0.7" />
    <circle cx="52.0" cy="96.9" r="3" fill="#f4a261" opacity="0.7" />
    <circle cx="136.5" cy="130.9" r="3" fill="#f4a261" opacity="0.7" />
    <circle cx="51.0" cy="109.2" r="3" fill="#f4a261" opacity="0.7" />
    <circle cx="113.6" cy="101.9" r="3" fill="#f4a261" opacity="0.7" />
    <circle cx="79.5" cy="130.8" r="3" fill="#f4a261" opacity="0.7" />
    <circle cx="53.1" cy="119.5" r="3" fill="#f4a261" opacity="0.7" />
    <circle cx="134.7" cy="105.0" r="3" fill="#f4a261" opacity="0.7" />
    <circle cx="76.0" cy="125.8" r="3" fill="#f4a261" opacity="0.7" />
    <circle cx="59.8" cy="129.8" r="3" fill="#f4a261" opacity="0.7" />
    <circle cx="60.1" cy="74.1" r="3" fill="#f4a261" opacity="0.7" />
    <circle cx="83.8" cy="139.7" r="3" fill="#f4a261" opacity="0.7" />
    <circle cx="59.0" cy="45.7" r="3" fill="#9b5de5" opacity="0.7" />
    <circle cx="51.0" cy="85.6" r="3" fill="#9b5de5" opacity="0.7" />
    <circle cx="51.3" cy="59.4" r="3" fill="#9b5de5" opacity="0.7" />
    <circle cx="69.8" cy="102.7" r="3" fill="#9b5de5" opacity="0.7" />
    <circle cx="130.2" cy="103.8" r="3" fill="#9b5de5" opacity="0.7" />
    <circle cx="132.4" cy="127.1" r="3" fill="#9b5de5" opacity="0.7" />
    <circle cx="51.5" cy="132.9" r="3" fill="#9b5de5" opacity="0.7" />
    <circle cx="69.5" cy="136.5" r="3" fill="#9b5de5" opacity="0.7" />
    <circle cx="54.3" cy="136.2" r="3" fill="#9b5de5" opacity="0.7" />
    <circle cx="56.1" cy="80.6" r="3" fill="#9b5de5" opacity="0.7" />
    <circle cx="56.5" cy="72.6" r="3" fill="#9b5de5" opacity="0.7" />
    <circle cx="81.5" cy="102.9" r="3" fill="#9b5de5" opacity="0.7" />
    <circle cx="211.6" cy="123.9" r="3" fill="#9b5de5" opacity="0.7" />
    <circle cx="114.9" cy="134.3" r="3" fill="#9b5de5" opacity="0.7" />
    <circle cx="80.3" cy="130.9" r="3" fill="#9b5de5" opacity="0.7" />
    <circle cx="74.5" cy="116.2" r="3" fill="#9b5de5" opacity="0.7" />
    <circle cx="209.7" cy="108.3" r="3" fill="#9b5de5" opacity="0.7" />
    <circle cx="50.2" cy="85.6" r="3" fill="#9b5de5" opacity="0.7" />
    <circle cx="50.0" cy="38.3" r="3" fill="#9b5de5" opacity="0.7" />
    <circle cx="74.6" cy="129.3" r="3" fill="#9b5de5" opacity="0.7" />
    <circle cx="59.9" cy="134.5" r="3" fill="#9b5de5" opacity="0.7" />
    <circle cx="141.7" cy="69.0" r="3" fill="#9b5de5" opacity="0.7" />
    <circle cx="69.7" cy="77.7" r="3" fill="#9b5de5" opacity="0.7" />
    <circle cx="129.1" cy="136.3" r="3" fill="#9b5de5" opacity="0.7" />
    <circle cx="64.5" cy="107.2" r="3" fill="#9b5de5" opacity="0.7" />
    <circle cx="51.9" cy="75.9" r="3" fill="#9b5de5" opacity="0.7" />
    <circle cx="83.2" cy="116.3" r="3" fill="#9b5de5" opacity="0.7" />
    <circle cx="73.4" cy="89.3" r="3" fill="#9b5de5" opacity="0.7" />
    <circle cx="154.8" cy="141.3" r="3" fill="#9b5de5" opacity="0.7" />
    <circle cx="124.7" cy="129.5" r="3" fill="#9b5de5" opacity="0.7" />
    <circle cx="59.2" cy="108.2" r="3" fill="#9b5de5" opacity="0.7" />
    <circle cx="56.4" cy="132.2" r="3" fill="#9b5de5" opacity="0.7" />
    <circle cx="140.3" cy="106.5" r="3" fill="#9b5de5" opacity="0.7" />
    <circle cx="99.6" cy="115.3" r="3" fill="#9b5de5" opacity="0.7" />
    <circle cx="64.5" cy="127.3" r="3" fill="#9b5de5" opacity="0.7" />
    <circle cx="57.0" cy="109.2" r="3" fill="#9b5de5" opacity="0.7" />
    <circle cx="181.2" cy="99.0" r="3" fill="#9b5de5" opacity="0.7" />
    <circle cx="94.8" cy="127.6" r="3" fill="#9b5de5" opacity="0.7" />
    <circle cx="55.6" cy="119.2" r="3" fill="#9b5de5" opacity="0.7" />
    <circle cx="63.2" cy="141.0" r="3" fill="#9b5de5" opacity="0.7" />
    <circle cx="53.3" cy="86.0" r="3" fill="#9b5de5" opacity="0.7" />
    <circle cx="124.0" cy="132.8" r="3" fill="#9b5de5" opacity="0.7" />
    <circle cx="51.7" cy="92.5" r="3" fill="#9b5de5" opacity="0.7" />
    <circle cx="120.0" cy="91.7" r="3" fill="#9b5de5" opacity="0.7" />
    <circle cx="79.5" cy="134.5" r="3" fill="#9b5de5" opacity="0.7" />
    <circle cx="53.8" cy="100.7" r="3" fill="#9b5de5" opacity="0.7" />
    <circle cx="138.2" cy="83.4" r="3" fill="#9b5de5" opacity="0.7" />
    <circle cx="74.3" cy="131.2" r="3" fill="#9b5de5" opacity="0.7" />
    <circle cx="61.7" cy="132.7" r="3" fill="#9b5de5" opacity="0.7" />
    <circle cx="59.8" cy="71.1" r="3" fill="#9b5de5" opacity="0.7" />
    <circle cx="89.6" cy="130.6" r="3" fill="#9b5de5" opacity="0.7" />
    <circle cx="57.9" cy="68.9" r="3" fill="#00bbf9" opacity="0.7" />
    <circle cx="51.0" cy="87.6" r="3" fill="#00bbf9" opacity="0.7" />
    <circle cx="51.9" cy="83.7" r="3" fill="#00bbf9" opacity="0.7" />
    <circle cx="72.8" cy="112.6" r="3" fill="#00bbf9" opacity="0.7" />
    <circle cx="137.3" cy="85.7" r="3" fill="#00bbf9" opacity="0.7" />
    <circle cx="155.8" cy="111.6" r="3" fill="#00bbf9" opacity="0.7" />
    <circle cx="52.1" cy="130.5" r="3" fill="#00bbf9" opacity="0.7" />
    <circle cx="74.3" cy="140.5" r="3" fill="#00bbf9" opacity="0.7" />
    <circle cx="54.4" cy="138.2" r="3" fill="#00bbf9" opacity="0.7" />
    <circle cx="60.0" cy="80.2" r="3" fill="#00bbf9" opacity="0.7" />
    <circle cx="62.1" cy="73.6" r="3" fill="#00bbf9" opacity="0.7" />
    <circle cx="95.6" cy="93.2" r="3" fill="#00bbf9" opacity="0.7" />
    <circle cx="270.6" cy="133.6" r="3" fill="#00bbf9" opacity="0.7" />
    <circle cx="122.5" cy="129.0" r="3" fill="#00bbf9" opacity="0.7" />
    <circle cx="86.2" cy="127.5" r="3" fill="#00bbf9" opacity="0.7" />
    <circle cx="78.4" cy="112.8" r="3" fill="#00bbf9" opacity="0.7" />
    <circle cx="219.4" cy="117.2" r="3" fill="#00bbf9" opacity="0.7" />
    <circle cx="50.3" cy="86.4" r="3" fill="#00bbf9" opacity="0.7" />
    <circle cx="50.2" cy="56.4" r="3" fill="#00bbf9" opacity="0.7" />
    <circle cx="84.7" cy="128.2" r="3" fill="#00bbf9" opacity="0.7" />
    <circle cx="61.5" cy="130.5" r="3" fill="#00bbf9" opacity="0.7" />
    <circle cx="143.2" cy="74.0" r="3" fill="#00bbf9" opacity="0.7" />
    <circle cx="74.8" cy="86.0" r="3" fill="#00bbf9" opacity="0.7" />
    <circle cx="141.7" cy="134.0" r="3" fill="#00bbf9" opacity="0.7" />
    <circle cx="68.3" cy="101.7" r="3" fill="#00bbf9" opacity="0.7" />
    <circle cx="52.5" cy="42.4" r="3" fill="#00bbf9" opacity="0.7" />
    <circle cx="100.9" cy="123.8" r="3" fill="#00bbf9" opacity="0.7" />
    <circle cx="77.3" cy="96.9" r="3" fill="#00bbf9" opacity="0.7" />
    <circle cx="174.3" cy="132.8" r="3" fill="#00bbf9" opacity="0.7" />
    <circle cx="145.7" cy="134.0" r="3" fill="#00bbf9" opacity="0.7" />
    <circle cx="62.4" cy="105.4" r="3" fill="#00bbf9" opacity="0.7" />
    <circle cx="58.3" cy="136.3" r="3" fill="#00bbf9" opacity="0.7" />
    <circle cx="151.3" cy="115.3" r="3" fill="#00bbf9" opacity="0.7" />
    <circle cx="105.8" cy="128.1" r="3" fill="#00bbf9" opacity="0.7" />
    <circle cx="65.9" cy="120.7" r="3" fill="#00bbf9" opacity="0.7" />
    <circle cx="57.8" cy="107.3" r="3" fill="#00bbf9" opacity="0.7" />
    <circle cx="187.8" cy="95.0" r="3" fill="#00bbf9" opacity="0.7" />
    <circle cx="109.6" cy="106.1" r="3" fill="#00bbf9" opacity="0.7" />
    <circle cx="56.5" cy="119.6" r="3" fill="#00bbf9" opacity="0.7" />
    <circle cx="67.7" cy="131.6" r="3" fill="#00bbf9" opacity="0.7" />
    <circle cx="56.7" cy="79.6" r="3" fill="#00bbf9" opacity="0.7" />
    <circle cx="200.8" cy="138.3" r="3" fill="#00bbf9" opacity="0.7" />
    <circle cx="51.7" cy="102.3" r="3" fill="#00bbf9" opacity="0.7" />
    <circle cx="132.0" cy="95.5" r="3" fill="#00bbf9" opacity="0.7" />
    <circle cx="85.0" cy="136.3" r="3" fill="#00bbf9" opacity="0.7" />
    <circle cx="55.1" cy="108.4" r="3" fill="#00bbf9" opacity="0.7" />
    <circle cx="151.0" cy="84.6" r="3" fill="#00bbf9" opacity="0.7" />
    <circle cx="80.8" cy="124.0" r="3" fill="#00bbf9" opacity="0.7" />
    <circle cx="61.6" cy="129.6" r="3" fill="#00bbf9" opacity="0.7" />
    <circle cx="62.9" cy="77.2" r="3" fill="#00bbf9" opacity="0.7" />
    <circle cx="102.0" cy="137.7" r="3" fill="#00bbf9" opacity="0.7" />
    <circle cx="57.7" cy="32.5" r="3" fill="#00f5d4" opacity="0.7" />
    <circle cx="51.3" cy="77.4" r="3" fill="#00f5d4" opacity="0.7" />
    <circle cx="52.9" cy="58.8" r="3" fill="#00f5d4" opacity="0.7" />
    <circle cx="79.4" cy="99.7" r="3" fill="#00f5d4" opacity="0.7" />
    <circle cx="147.6" cy="80.5" r="3" fill="#00f5d4" opacity="0.7" />
    <circle cx="164.1" cy="129.4" r="3" fill="#00f5d4" opacity="0.7" />
    <circle cx="52.4" cy="131.3" r="3" fill="#00f5d4" opacity="0.7" />
    <circle cx="83.3" cy="139.4" r="3" fill="#00f5d4" opacity="0.7" />
    <circle cx="55.5" cy="124.6" r="3" fill="#00f5d4" opacity="0.7" />
    <circle cx="64.0" cy="77.3" r="3" fill="#00f5d4" opacity="0.7" />
    <circle cx="65.1" cy="79.2" r="3" fill="#00f5d4" opacity="0.7" />
    <circle cx="98.8" cy="90.3" r="3" fill="#00f5d4" opacity="0.7" />
    <circle cx="263.6" cy="125.0" r="3" fill="#00f5d4" opacity="0.7" />
    <circle cx="124.1" cy="129.0" r="3" fill="#00f5d4" opacity="0.7" />
    <circle cx="91.6" cy="127.2" r="3" fill="#00f5d4" opacity="0.7" />
    <circle cx="84.4" cy="112.7" r="3" fill="#00f5d4" opacity="0.7" />
    <circle cx="224.9" cy="114.5" r="3" fill="#00f5d4" opacity="0.7" />
    <circle cx="50.3" cy="88.4" r="3" fill="#00f5d4" opacity="0.7" />
    <circle cx="50.6" cy="35.7" r="3" fill="#00f5d4" opacity="0.7" />
    <circle cx="85.5" cy="131.2" r="3" fill="#00f5d4" opacity="0.7" />
    <circle cx="61.6" cy="121.4" r="3" fill="#00f5d4" opacity="0.7" />
    <circle cx="145.3" cy="83.8" r="3" fill="#00f5d4" opacity="0.7" />
    <circle cx="77.0" cy="100.1" r="3" fill="#00f5d4" opacity="0.7" />
    <circle cx="142.0" cy="122.2" r="3" fill="#00f5d4" opacity="0.7" />
    <circle cx="83.2" cy="119.0" r="3" fill="#00f5d4" opacity="0.7" />
    <circle cx="52.4" cy="44.0" r="3" fill="#00f5d4" opacity="0.7" />
    <circle cx="104.0" cy="128.1" r="3" fill="#00f5d4" opacity="0.7" />
    <circle cx="81.5" cy="102.4" r="3" fill="#00f5d4" opacity="0.7" />
    <circle cx="183.5" cy="143.4" r="3" fill="#00f5d4" opacity="0.7" />
    <circle cx="147.9" cy="138.0" r="3" fill="#00f5d4" opacity="0.7" />
    <circle cx="61.3" cy="115.8" r="3" fill="#00f5d4" opacity="0.7" />
    <circle cx="58.7" cy="124.6" r="3" fill="#00f5d4" opacity="0.7" />
    <circle cx="184.8" cy="121.6" r="3" fill="#00f5d4" opacity="0.7" />
    <circle cx="113.8" cy="118.8" r="3" fill="#00f5d4" opacity="0.7" />
    <circle cx="66.4" cy="134.4" r="3" fill="#00f5d4" opacity="0.7" />
    <circle cx="60.0" cy="102.3" r="3" fill="#00f5d4" opacity="0.7" />
    <circle cx="205.3" cy="98.1" r="3" fill="#00f5d4" opacity="0.7" />
    <circle cx="118.3" cy="119.3" r="3" fill="#00f5d4" opacity="0.7" />
    <circle cx="55.8" cy="117.3" r="3" fill="#00f5d4" opacity="0.7" />
    <circle cx="68.8" cy="140.2" r="3" fill="#00f5d4" opacity="0.7" />
    <circle cx="58.9" cy="100.4" r="3" fill="#00f5d4" opacity="0.7" />
    <circle cx="257.1" cy="135.0" r="3" fill="#00f5d4" opacity="0.7" />
    <circle cx="51.8" cy="97.1" r="3" fill="#00f5d4" opacity="0.7" />
    <circle cx="141.3" cy="80.2" r="3" fill="#00f5d4" opacity="0.7" />
    <circle cx="88.9" cy="125.5" r="3" fill="#00f5d4" opacity="0.7" />
    <circle cx="63.7" cy="102.9" r="3" fill="#00f5d4" opacity="0.7" />
    <circle cx="143.3" cy="94.2" r="3" fill="#00f5d4" opacity="0.7" />
    <circle cx="82.5" cy="132.6" r="3" fill="#00f5d4" opacity="0.7" />
    <circle cx="61.7" cy="132.0" r="3" fill="#00f5d4" opacity="0.7" />
    <circle cx="59.5" cy="78.4" r="3" fill="#00f5d4" opacity="0.7" />
    <circle cx="126.3" cy="131.0" r="3" fill="#00f5d4" opacity="0.7" />
    <circle cx="58.0" cy="35.5" r="3" fill="#fee440" opacity="0.7" />
    <circle cx="52.4" cy="79.8" r="3" fill="#fee440" opacity="0.7" />
    <circle cx="54.3" cy="58.5" r="3" fill="#fee440" opacity="0.7" />
    <circle cx="81.7" cy="103.7" r="3" fill="#fee440" opacity="0.7" />
    <circle cx="151.0" cy="96.0" r="3" fill="#fee440" opacity="0.7" />
    <circle cx="178.0" cy="114.9" r="3" fill="#fee440" opacity="0.7" />
    <circle cx="53.8" cy="135.4" r="3" fill="#fee440" opacity="0.7" />
    <circle cx="103.4" cy="145.9" r="3" fill="#fee440" opacity="0.7" />
    <circle cx="55.0" cy="135.4" r="3" fill="#fee440" opacity="0.7" />
    <circle cx="66.8" cy="75.9" r="3" fill="#fee440" opacity="0.7" />
    <circle cx="71.1" cy="84.8" r="3" fill="#fee440" opacity="0.7" />
    <circle cx="98.6" cy="84.2" r="3" fill="#fee440" opacity="0.7" />
    <circle cx="293.2" cy="122.7" r="3" fill="#fee440" opacity="0.7" />
    <circle cx="120.3" cy="122.6" r="3" fill="#fee440" opacity="0.7" />
    <circle cx="102.0" cy="118.2" r="3" fill="#fee440" opacity="0.7" />
    <circle cx="93.4" cy="118.9" r="3" fill="#fee440" opacity="0.7" />
    <circle cx="234.0" cy="100.1" r="3" fill="#fee440" opacity="0.7" />
    <circle cx="50.3" cy="87.4" r="3" fill="#fee440" opacity="0.7" />
    <circle cx="50.7" cy="29.9" r="3" fill="#fee440" opacity="0.7" />
    <circle cx="89.3" cy="135.1" r="3" fill="#fee440" opacity="0.7" />
    <circle cx="62.5" cy="136.3" r="3" fill="#fee440" opacity="0.7" />
    <circle cx="144.8" cy="70.4" r="3" fill="#fee440" opacity="0.7" />
    <circle cx="82.8" cy="80.0" r="3" fill="#fee440" opacity="0.7" />
    <circle cx="160.8" cy="122.6" r="3" fill="#fee440" opacity="0.7" />
    <circle cx="87.2" cy="119.0" r="3" fill="#fee440" opacity="0.7" />
    <circle cx="52.8" cy="70.5" r="3" fill="#fee440" opacity="0.7" />
    <circle cx="107.5" cy="122.7" r="3" fill="#fee440" opacity="0.7" />
    <circle cx="83.8" cy="105.4" r="3" fill="#fee440" opacity="0.7" />
    <circle cx="190.8" cy="134.2" r="3" fill="#fee440" opacity="0.7" />
    <circle cx="169.9" cy="136.5" r="3" fill="#fee440" opacity="0.7" />
    <circle cx="60.0" cy="111.9" r="3" fill="#fee440" opacity="0.7" />
    <circle cx="59.1" cy="135.9" r="3" fill="#fee440" opacity="0.7" />
    <circle cx="204.4" cy="119.7" r="3" fill="#fee440" opacity="0.7" />
    <circle cx="134.4" cy="113.0" r="3" fill="#fee440" opacity="0.7" />
    <circle cx="69.5" cy="134.9" r="3" fill="#fee440" opacity="0.7" />
    <circle cx="61.5" cy="100.6" r="3" fill="#fee440" opacity="0.7" />
    <circle cx="221.0" cy="77.6" r="3" fill="#fee440" opacity="0.7" />
    <circle cx="111.2" cy="117.3" r="3" fill="#fee440" opacity="0.7" />
    <circle cx="56.1" cy="119.8" r="3" fill="#fee440" opacity="0.7" />
    <circle cx="78.1" cy="130.4" r="3" fill="#fee440" opacity="0.7" />
    <circle cx="59.4" cy="94.2" r="3" fill="#fee440" opacity="0.7" />
    <circle cx="271.2" cy="127.9" r="3" fill="#fee440" opacity="0.7" />
    <circle cx="53.4" cy="110.0" r="3" fill="#fee440" opacity="0.7" />
    <circle cx="150.4" cy="92.9" r="3" fill="#fee440" opacity="0.7" />
    <circle cx="94.7" cy="134.4" r="3" fill="#fee440" opacity="0.7" />
    <circle cx="70.1" cy="98.1" r="3" fill="#fee440" opacity="0.7" />
    <circle cx="157.7" cy="96.3" r="3" fill="#fee440" opacity="0.7" />
    <circle cx="76.8" cy="120.8" r="3" fill="#fee440" opacity="0.7" />
    <circle cx="66.5" cy="123.2" r="3" fill="#fee440" opacity="0.7" />
    <circle cx="63.6" cy="73.7" r="3" fill="#fee440" opacity="0.7" />
    <circle cx="132.7" cy="138.0" r="3" fill="#fee440" opacity="0.7" />
    <circle cx="56.4" cy="23.4" r="3" fill="#f15bb5" opacity="0.7" />
    <circle cx="53.3" cy="95.0" r="3" fill="#f15bb5" opacity="0.7" />
    <circle cx="54.8" cy="84.9" r="3" fill="#f15bb5" opacity="0.7" />
    <circle cx="81.5" cy="115.3" r="3" fill="#f15bb5" opacity="0.7" />
    <circle cx="147.7" cy="104.5" r="3" fill="#f15bb5" opacity="0.7" />
    <circle cx="181.7" cy="124.2" r="3" fill="#f15bb5" opacity="0.7" />
    <circle cx="54.1" cy="129.4" r="3" fill="#f15bb5" opacity="0.7" />
    <circle cx="105.0" cy="136.4" r="3" fill="#f15bb5" opacity="0.7" />
    <circle cx="62.8" cy="137.7" r="3" fill="#f15bb5" opacity="0.7" />
    <circle cx="70.8" cy="86.3" r="3" fill="#f15bb5" opacity="0.7" />
    <circle cx="72.5" cy="96.1" r="3" fill="#f15bb5" opacity="0.7" />
    <circle cx="103.8" cy="86.1" r="3" fill="#f15bb5" opacity="0.7" />
    <circle cx="281.1" cy="122.6" r="3" fill="#f15bb5" opacity="0.7" />
    <circle cx="118.4" cy="123.5" r="3" fill="#f15bb5" opacity="0.7" />
    <circle cx="101.3" cy="118.2" r="3" fill="#f15bb5" opacity="0.7" />
    <circle cx="95.7" cy="123.5" r="3" fill="#f15bb5" opacity="0.7" />
    <circle cx="230.0" cy="103.8" r="3" fill="#f15bb5" opacity="0.7" />
    <circle cx="51.0" cy="92.9" r="3" fill="#f15bb5" opacity="0.7" />
    <circle cx="51.2" cy="28.7" r="3" fill="#f15bb5" opacity="0.7" />
    <circle cx="92.9" cy="128.1" r="3" fill="#f15bb5" opacity="0.7" />
    <circle cx="65.2" cy="124.5" r="3" fill="#f15bb5" opacity="0.7" />
    <circle cx="138.0" cy="64.6" r="3" fill="#f15bb5" opacity="0.7" />
    <circle cx="80.5" cy="99.3" r="3" fill="#f15bb5" opacity="0.7" />
    <circle cx="160.7" cy="135.1" r="3" fill="#f15bb5" opacity="0.7" />
    <circle cx="90.1" cy="110.8" r="3" fill="#f15bb5" opacity="0.7" />
    <circle cx="53.3" cy="44.5" r="3" fill="#f15bb5" opacity="0.7" />
    <circle cx="118.6" cy="122.8" r="3" fill="#f15bb5" opacity="0.7" />
    <circle cx="86.4" cy="96.1" r="3" fill="#f15bb5" opacity="0.7" />
    <circle cx="182.3" cy="137.2" r="3" fill="#f15bb5" opacity="0.7" />
    <circle cx="166.3" cy="130.3" r="3" fill="#f15bb5" opacity="0.7" />
    <circle cx="59.5" cy="102.5" r="3" fill="#f15bb5" opacity="0.7" />
    <circle cx="59.3" cy="126.2" r="3" fill="#f15bb5" opacity="0.7" />
    <circle cx="221.7" cy="115.9" r="3" fill="#f15bb5" opacity="0.7" />
    <circle cx="141.1" cy="115.0" r="3" fill="#f15bb5" opacity="0.7" />
    <circle cx="71.8" cy="130.4" r="3" fill="#f15bb5" opacity="0.7" />
    <circle cx="62.1" cy="113.6" r="3" fill="#f15bb5" opacity="0.7" />
    <circle cx="209.8" cy="70.6" r="3" fill="#f15bb5" opacity="0.7" />
    <circle cx="117.7" cy="107.5" r="3" fill="#f15bb5" opacity="0.7" />
    <circle cx="55.9" cy="127.4" r="3" fill="#f15bb5" opacity="0.7" />
    <circle cx="71.8" cy="131.9" r="3" fill="#f15bb5" opacity="0.7" />
    <circle cx="60.5" cy="86.5" r="3" fill="#f15bb5" opacity="0.7" />
    <circle cx="257.8" cy="136.5" r="3" fill="#f15bb5" opacity="0.7" />
    <circle cx="54.8" cy="102.1" r="3" fill="#f15bb5" opacity="0.7" />
    <circle cx="154.0" cy="85.9" r="3" fill="#f15bb5" opacity="0.7" />
    <circle cx="103.0" cy="128.5" r="3" fill="#f15bb5" opacity="0.7" />
    <circle cx="73.1" cy="104.3" r="3" fill="#f15bb5" opacity="0.7" />
    <circle cx="132.3" cy="81.6" r="3" fill="#f15bb5" opacity="0.7" />
    <circle cx="79.6" cy="120.5" r="3" fill="#f15bb5" opacity="0.7" />
    <circle cx="68.5" cy="129.9" r="3" fill="#f15bb5" opacity="0.7" />
    <circle cx="65.4" cy="91.2" r="3" fill="#f15bb5" opacity="0.7" />
    <circle cx="128.5" cy="130.8" r="3" fill="#f15bb5" opacity="0.7" />
  </g>
</svg>